<!DOCTYPE svg PUBLIC "-//W3C//DTD SVG 1.1//EN" "http://www.w3.org/Graphics/SVG/1.1/DTD/svg11.dtd">
<!-- Uploaded to: SVG Repo, www.svgrepo.com, Transformed by: SVG Repo Mixer Tools -->
<svg height="800px" width="800px" version="1.1" id="_x32_" xmlns="http://www.w3.org/2000/svg" xmlns:xlink="http://www.w3.org/1999/xlink" viewBox="0 0 512 512" xml:space="preserve" fill="#000000">
<g id="SVGRepo_bgCarrier" stroke-width="0"/>
<g id="SVGRepo_tracerCarrier" stroke-linecap="round" stroke-linejoin="round"/>
<g id="SVGRepo_iconCarrier"> <style type="text/css"> .st0{fill:#00c7b7;} </style> <g> <path class="st0" d="M502.198,263.697C492.386,148.068,375.395,65.876,259.027,65.876c-153.162,0-143.009,50.139-160.082,51.56 C57.128,120.813,0,169.687,0,226.746c0,57.148,23.702,112.864,92.638,112.864c-4.196,23.673,4.165,62.024,78.62,62.024 c35.664,0,85.852,0,103.149,0c0,56.369,85.034,43.14,114.898,43.14c29.941,0,34.818-32.062,29.358-40.385 C511.99,403.679,525.092,306.224,502.198,263.697z M367.112,114.661h26.447c5.684,0,10.308,4.634,10.308,10.366 c0,5.86-4.624,10.523-10.308,10.523h-26.447c-5.86,0-10.502-4.663-10.502-10.523C356.61,119.295,361.252,114.661,367.112,114.661z M290.477,150.881c1.859,0,3.562,0,5.149,0c5.509,0,6.94-0.915,6.94-0.915c0.516-1.003,0.516-4.867,0.516-7.31v-30.505 c0-5.704,4.555-10.416,10.366-10.416c5.694,0,10.386,4.712,10.386,10.416v30.34c0.107,2.608,0.107,5.509-0.302,8.39h34.478 c1.06,0,2.21-0.049,3.591-0.049c8.372-0.35,21.045-0.72,30.37,8.225c6.054,5.85,9.228,14.61,9.228,25.94v36.697 c0,3.446-0.126,10.629,1.781,12.605c0.886,0.827,2.998,0.886,3.758,0.886h53.741c5.646,0,10.278,4.75,10.278,10.464 c0,5.85-4.633,10.503-10.278,10.503h-53.741c-9.559,0-15.418-3.854-18.572-7.106c-8.089-8.225-8.06-20.334-7.836-27.527v-1.557 v-34.965c0-5.275-1.052-9.208-2.863-10.979c-2.852-2.755-9.655-2.521-15.164-2.278c-1.568,0-2.969,0.116-4.293,0.116h-68.4 c0,0-0.108-0.116-0.331-0.116c-8.673,0-21.044,0-24.355,3.26c-0.204,0.243-0.983,0.857-0.983,3.494v56.962 c0,5.812-4.74,10.513-10.415,10.513c-5.763,0-10.445-4.701-10.445-10.513v-56.962c0-9.276,3.972-15.088,7.144-18.299 C259.942,150.657,276.276,150.706,290.477,150.881z M199.174,92.303c0-5.752,4.682-10.473,10.347-10.473 c5.841,0,10.502,4.72,10.502,10.473v11.505h17.512c5.665,0,10.347,4.76,10.347,10.435c0,5.811-4.682,10.503-10.347,10.503h-17.512 v14.942c0,5.693-4.662,10.473-10.502,10.473c-5.665,0-10.347-4.78-10.347-10.473V92.303z M96.482,144.584h43.336 c9.976-0.088,22.484-0.176,31.741,9.11c7.136,7.018,10.581,17.658,10.581,32.686v11.058h16.363c5.772,0,10.376,4.779,10.376,10.551 c0,5.752-4.604,10.454-10.376,10.454H182.14v8.664c0,5.762-4.73,10.493-10.396,10.493c-5.879,0-10.532-4.73-10.532-10.493V186.38 c0-8.858-1.548-15.029-4.36-17.774c-3.164-3.338-9.9-3.338-16.986-3.086H96.482c-5.918,0-10.454-4.72-10.454-10.522 C86.028,149.323,90.564,144.584,96.482,144.584z M87.77,236.909v19.059c0,5.811-4.604,10.464-10.542,10.464 c-5.714,0-10.318-4.653-10.318-10.464v-19.059H40.366c-5.781,0-10.502-4.722-10.502-10.474c0-5.772,4.722-10.503,10.502-10.503 h73.228c5.627,0,10.425,4.73,10.425,10.503c0,5.752-4.798,10.474-10.425,10.474H87.77z M141.16,305.679 c-5.996,5.869-8.848,14.455-8.848,26.291c0,5.664-4.75,10.464-10.454,10.464c-5.84,0-10.425-4.799-10.425-10.464 c0-17.424,5.071-31.275,15.039-41.107c17.774-17.54,45.748-17.092,62.384-16.839c1.81,0,3.309,0,4.78,0h84.315 c13.199,0,22.806-2.89,28.238-8.672c8.897-9.384,8.176-25.96,7.533-39.432c-0.135-3.232-0.272-6.268-0.272-8.916 c0-5.821,4.604-10.454,10.298-10.454c5.899,0,10.562,4.633,10.562,10.454c0,2.326,0.136,5.1,0.272,8.05 c0.77,15.448,1.81,38.828-13.101,54.616c-9.705,10.162-24.296,15.262-43.53,15.262h-84.315c-1.548,0-3.28,0-5.11,0 C174.275,294.737,152.646,294.406,141.16,305.679z M249.303,350.687v20.869c0,5.851-4.662,10.445-10.434,10.445 c-5.753,0-10.396-4.594-10.396-10.445v-20.869h-40.464c-5.694,0-10.483-4.673-10.483-10.464c0-5.674,4.788-10.445,10.483-10.445 h132.322c5.831,0,10.415,4.77,10.415,10.445c0,5.791-4.584,10.464-10.415,10.464H249.303z M390.025,402.247h-61.984 c-5.763,0-10.445-4.643-10.445-10.385c0-5.812,4.682-10.474,10.445-10.474h36.21V361.94c0-5.918,4.662-10.474,10.444-10.474 c5.821,0,10.415,4.556,10.415,10.474v19.448h4.916c5.723,0,10.425,4.662,10.425,10.474 C400.45,397.604,395.748,402.247,390.025,402.247z M417.105,329.779v-17.064h-48.348c-5.744,0-10.454-4.584-10.454-10.366 c0-5.772,4.71-10.503,10.454-10.503h73.052c5.889,0,10.551,4.731,10.551,10.503c0,5.782-4.662,10.366-10.551,10.366h-3.757v17.064 c0,5.89-4.692,10.445-10.445,10.445C421.845,340.224,417.105,335.669,417.105,329.779z M470.758,377.806h-26.427 c-5.831,0-10.494-4.555-10.494-10.366s4.663-10.406,10.494-10.406h26.427c5.86,0,10.571,4.595,10.571,10.406 S476.618,377.806,470.758,377.806z"/> </g> </g>
</svg>