<?xml version="1.0" encoding="utf-8"?>
<!-- Generator: Adobe Illustrator 18.1.1, SVG Export Plug-In . SVG Version: 6.00 Build 0)  -->
<svg version="1.1" id="Ebene_1" xmlns="http://www.w3.org/2000/svg" xmlns:xlink="http://www.w3.org/1999/xlink" x="0px" y="0px"
	 viewBox="115 -140.9 300 85" enable-background="new 115 -140.9 300 85" xml:space="preserve">
<g>
	<g>
		<path fill="#00457C" d="M220.2-105.1v-0.8c1.2,0,1.9-0.2,2.3-0.6c0.3-0.4,0.5-1.2,0.5-2.5v-14.1c0-1.3-0.2-2.1-0.5-2.5
			c-0.3-0.4-1.1-0.6-2.3-0.6v-0.8h9.2v0.8c-1.2,0-1.9,0.2-2.3,0.6c-0.3,0.4-0.5,1.2-0.5,2.5v5.8h8.7v-5.8c0-1.3-0.2-2.1-0.5-2.5
			c-0.3-0.4-1.1-0.6-2.3-0.6v-0.8h9.2v0.8c-1.2,0-1.9,0.2-2.3,0.6c-0.3,0.4-0.5,1.2-0.5,2.5v14.1c0,1.3,0.2,2.1,0.5,2.5
			c0.3,0.4,1.1,0.6,2.3,0.6v0.8h-9.2v-0.8c1.2,0,1.9-0.2,2.3-0.6c0.3-0.4,0.5-1.2,0.5-2.5v-6.7h-8.7v6.7c0,1.3,0.2,2.1,0.5,2.5
			c0.3,0.4,1.1,0.6,2.3,0.6v0.8H220.2z"/>
		<path fill="#00457C" d="M245.9-105.1v-0.8c1.2,0,1.9-0.2,2.3-0.6c0.3-0.4,0.5-1.2,0.5-2.5v-14.1c0-1.3-0.2-2.1-0.5-2.5
			c-0.3-0.4-1.1-0.6-2.3-0.6v-0.8h15.4l0.2,4.7h-0.9c-0.1-1.1-0.3-1.8-0.8-2.3c-0.6-0.6-1.8-1-3.4-1h-2.1c-0.8,0-1.3,0.2-1.6,0.5
			c-0.3,0.3-0.4,0.9-0.4,1.9v5.8h4.3c1.1,0,1.8-0.2,2.1-0.6c0.2-0.3,0.4-1,0.4-2.1h0.9v6.8H259c0-1-0.1-1.7-0.4-2
			c-0.3-0.4-1-0.6-2.1-0.6h-4.3v6.8c0,1,0.1,1.6,0.2,1.8c0.2,0.4,0.8,0.5,1.7,0.5h3c2.4,0,3.7-1.1,3.8-3.3h0.9l-0.2,4.7L245.9-105.1
			L245.9-105.1z"/>
		<path fill="#00457C" d="M266.6-105.1v-0.8c1.2,0,1.9-0.2,2.3-0.6c0.3-0.4,0.5-1.2,0.5-2.5v-14.1c0-1.3-0.2-2.1-0.5-2.5
			c-0.3-0.4-1.1-0.6-2.3-0.6v-0.8h9.2v0.8c-1.2,0-1.9,0.2-2.3,0.6c-0.3,0.4-0.5,1.2-0.5,2.5v14.1c0,0.9,0.1,1.6,0.3,1.8
			c0.3,0.3,0.9,0.5,1.9,0.5h2.4c1.3,0,2.2-0.3,2.8-0.9c0.6-0.5,1-1.5,1.3-2.8h0.9l-0.2,5.2L266.6-105.1L266.6-105.1z"/>
		<path fill="#00457C" d="M284.8-105.1v-0.8c1.2,0,1.9-0.2,2.3-0.6c0.3-0.4,0.5-1.2,0.5-2.5v-14.1c0-1.3-0.2-2.1-0.5-2.5
			c-0.3-0.4-1.1-0.6-2.3-0.6v-0.8h7.1l6.3,17.8h0.1l6.4-17.8h7.2v0.8c-1.2,0-1.9,0.2-2.3,0.6c-0.3,0.4-0.5,1.2-0.5,2.5v14.1
			c0,1.3,0.2,2.1,0.5,2.5c0.3,0.4,1.1,0.6,2.3,0.6v0.8H303v-0.8c1.2,0,1.9-0.2,2.3-0.6c0.3-0.4,0.5-1.2,0.5-2.5v-15.4h-0.1
			l-6.9,19.3h-2.3l-6.9-19.3v15.4c0,1.3,0.2,2.1,0.5,2.5c0.3,0.4,1.1,0.6,2.3,0.6v0.8L284.8-105.1L284.8-105.1z"/>
		<path fill="#00457C" d="M315.9-105.1v-0.8c1.2,0,1.9-0.2,2.3-0.6c0.3-0.4,0.5-1.2,0.5-2.5v-14.1c0-1.3-0.2-2.1-0.5-2.5
			c-0.3-0.4-1.1-0.6-2.3-0.6v-0.8h9.2v0.8c-1.2,0-1.9,0.2-2.3,0.6c-0.3,0.4-0.5,1.2-0.5,2.5v5.8h8.7v-5.8c0-1.3-0.2-2.1-0.5-2.5
			c-0.3-0.4-1.1-0.6-2.3-0.6v-0.8h9.2v0.8c-1.2,0-1.9,0.2-2.3,0.6c-0.3,0.4-0.5,1.2-0.5,2.5v14.1c0,1.3,0.2,2.1,0.5,2.5
			c0.3,0.4,1.1,0.6,2.3,0.6v0.8h-9.2v-0.8c1.2,0,1.9-0.2,2.3-0.6c0.3-0.4,0.5-1.2,0.5-2.5v-6.7h-8.7v6.7c0,1.3,0.2,2.1,0.5,2.5
			c0.3,0.4,1.1,0.6,2.3,0.6v0.8H315.9z"/>
		<path fill="#00457C" d="M349.8-104.8c-3.2,0-5.6-1-7-3c-1.3-1.8-1.9-4.5-1.9-8.2c0-3.7,0.6-6.4,1.9-8.2c1.4-2,3.7-3,7-3
			c3.3,0,5.6,1,7,3c1.3,1.8,1.9,4.5,1.9,8.2c0,3.7-0.6,6.4-1.9,8.2C355.4-105.8,353-104.8,349.8-104.8z M344.7-116
			c0,3,0.3,5.3,0.9,6.7c0.8,1.9,2.2,2.9,4.2,2.9c2,0,3.4-1,4.2-2.9c0.6-1.5,0.9-3.7,0.9-6.7c0-3-0.3-5.3-0.9-6.7
			c-0.8-1.9-2.2-2.9-4.2-2.9c-2,0-3.4,1-4.2,2.9C345-121.3,344.7-119.1,344.7-116z"/>
		<path fill="#00457C" d="M362.2-105.1v-0.8c1.2,0,1.9-0.2,2.3-0.6c0.3-0.4,0.5-1.2,0.5-2.5v-14.1c0-1.3-0.2-2.1-0.5-2.5
			c-0.3-0.4-1.1-0.6-2.3-0.6v-0.8h9.2v0.8c-1.2,0-1.9,0.2-2.3,0.6c-0.3,0.4-0.5,1.2-0.5,2.5v14.1c0,0.9,0.1,1.6,0.3,1.8
			c0.3,0.3,0.9,0.5,1.9,0.5h2.4c1.3,0,2.2-0.3,2.8-0.9c0.6-0.5,1-1.5,1.3-2.8h0.9l-0.2,5.2L362.2-105.1L362.2-105.1z"/>
		<path fill="#00457C" d="M383-105.1v-0.8c1.2,0,1.9-0.2,2.3-0.6c0.3-0.4,0.5-1.2,0.5-2.5v-16.4h-1.3c-1.6,0-2.7,0.3-3.4,0.9
			c-0.5,0.5-0.9,1.4-1.1,2.7h-0.9l0.2-5.1h16.6l0.2,5.1h-0.9c-0.2-1.3-0.5-2.2-1.1-2.7c-0.7-0.6-1.8-0.9-3.4-0.9h-1.2v16.4
			c0,1.3,0.2,2.1,0.5,2.5c0.3,0.4,1.1,0.6,2.3,0.6v0.8H383z"/>
		<path fill="#00457C" d="M399.6-105.1v-1.9l11-18.4h-4.8c-1.7,0-2.9,0.3-3.5,0.8c-0.5,0.5-0.9,1.4-1,2.9h-0.9l0.2-5.2h14.1v1.7
			l-11.1,18.6h6c1.7,0,2.9-0.3,3.6-0.9c0.5-0.5,0.9-1.4,1-2.9h0.9l-0.2,5.2L399.6-105.1L399.6-105.1z"/>
	</g>
	<g>
		<path fill="#00457C" d="M220.3-71.6v-0.8c1.2,0,1.9-0.2,2.3-0.6c0.3-0.4,0.5-1.2,0.5-2.5v-14.1c0-1.3-0.2-2.1-0.5-2.5
			c-0.3-0.4-1.1-0.6-2.3-0.6v-0.8h15.1l0.2,4.7h-0.9c-0.1-1.1-0.3-1.8-0.7-2.3c-0.6-0.6-1.6-1-3.2-1h-2.1c-0.8,0-1.4,0.2-1.6,0.6
			c-0.2,0.3-0.3,0.9-0.3,1.8v5.8h4.3c1.1,0,1.8-0.2,2.1-0.6c0.2-0.3,0.4-1,0.4-2.1h0.9v6.8h-0.9c0-1-0.1-1.7-0.4-2
			c-0.3-0.4-1-0.6-2.1-0.6h-4.3v6.8c0,1.3,0.2,2.1,0.5,2.5c0.3,0.4,1.1,0.6,2.3,0.6v0.8L220.3-71.6L220.3-71.6z"/>
		<path fill="#00457C" d="M249.2-71.2c-3.2,0-5.6-1-7-3c-1.3-1.8-1.9-4.5-1.9-8.2c0-3.7,0.6-6.4,1.9-8.2c1.4-2,3.7-3,7-3
			c3.3,0,5.6,1,7,3c1.3,1.8,1.9,4.5,1.9,8.2c0,3.7-0.6,6.4-1.9,8.2C254.8-72.2,252.5-71.2,249.2-71.2z M244.1-82.4
			c0,3,0.3,5.3,0.9,6.7c0.8,1.9,2.2,2.9,4.2,2.9c2,0,3.4-1,4.1-2.9c0.6-1.5,0.9-3.7,0.9-6.7c0-3-0.3-5.3-0.9-6.7
			c-0.8-1.9-2.2-2.9-4.1-2.9c-2,0-3.4,1-4.2,2.9C244.4-87.7,244.1-85.5,244.1-82.4z"/>
		<path fill="#00457C" d="M261.3-71.6v-0.8c1.2,0,1.9-0.2,2.3-0.6c0.3-0.4,0.5-1.2,0.5-2.5v-14.1c0-1.3-0.2-2.1-0.5-2.5
			c-0.3-0.4-1.1-0.6-2.3-0.6v-0.8h6.4L278-75.8v-13.7c0-1.3-0.2-2.1-0.5-2.5c-0.3-0.4-1.1-0.6-2.3-0.6v-0.8h7.6v0.8
			c-1.2,0-1.9,0.2-2.3,0.6c-0.3,0.4-0.5,1.2-0.5,2.5v17.9h-3.1L266.1-90v14.6c0,1.3,0.2,2.1,0.5,2.5c0.3,0.4,1.1,0.6,2.3,0.6v0.8
			L261.3-71.6L261.3-71.6z"/>
		<path fill="#00457C" d="M286.1-71.6v-0.8c1.2,0,1.9-0.2,2.3-0.6c0.3-0.4,0.5-1.2,0.5-2.5v-14.1c0-1.3-0.2-2.1-0.5-2.5
			c-0.3-0.4-1.1-0.6-2.3-0.6v-0.8h8.5c3.5,0,6.1,0.7,7.7,2c2,1.7,3,4.6,3,8.8c0,4.4-1,7.4-3,9c-1.6,1.3-4.1,1.9-7.7,1.9L286.1-71.6
			L286.1-71.6z M292.4-89.5v14.1c0,0.9,0.1,1.5,0.3,1.8c0.3,0.4,0.9,0.6,1.8,0.6c2.7,0,4.5-0.8,5.5-2.3c0.9-1.3,1.3-3.7,1.3-7.2
			c0-3.4-0.4-5.7-1.1-7c-1-1.6-2.9-2.4-5.7-2.4c-0.9,0-1.5,0.1-1.7,0.4C292.6-91.1,292.4-90.5,292.4-89.5z"/>
		<path fill="#00457C" d="M322.7-88h-0.9c-0.4-2.7-1.9-4.1-4.6-4.1c-1.3,0-2.3,0.3-3,0.9c-0.7,0.6-1.1,1.3-1.1,2.2
			c0,1,0.5,1.9,1.5,2.7c0.7,0.5,1.8,1.2,3.3,2.1c1.6,0.8,2.7,1.5,3.2,1.8c1.8,1.4,2.7,3.1,2.7,4.9c0,4.2-2.8,6.3-8.5,6.3
			c-1.7,0-3.6-0.3-5.8-0.9l-0.2-5.4h0.9c0.3,1.3,0.7,2.3,1.2,3c0.9,1.2,2.3,1.7,4.2,1.7c1.4,0,2.5-0.3,3.3-1
			c0.8-0.7,1.1-1.5,1.1-2.5c0-1.4-0.8-2.6-2.3-3.6c-1.5-0.9-3-1.8-4.5-2.7c-2.4-1.5-3.6-3.3-3.6-5.5c0-1.8,0.7-3.1,2-4.1
			c1.3-1,3.1-1.5,5.5-1.5c1.2,0,3,0.2,5.3,0.6L322.7-88z"/>
		<path fill="#00457C" d="M349.7-73.3v1.2c-1.5,0.6-3.1,0.9-4.5,0.9c-2.5,0-4.5-0.7-5.9-2.2c-1.4-1.4-2.1-3.5-2.1-6.2
			c0-4.9,2.3-7.3,6.8-7.3c4,0,6,2.1,6,6.2h-9.2c0,2.1,0.4,3.9,1.2,5.3c1,1.8,2.6,2.7,4.7,2.7C347.7-72.7,348.7-72.9,349.7-73.3z
			 M340.7-82.1h5.9c0-2.5-0.9-3.7-2.8-3.7c-1.1,0-1.9,0.5-2.5,1.4C340.9-83.7,340.7-83,340.7-82.1z"/>
		<path fill="#00457C" d="M355.4-71.2c-0.6,0-1.2-0.2-1.6-0.7c-0.5-0.5-0.7-1-0.7-1.6c0-0.6,0.2-1.2,0.7-1.6c0.5-0.5,1-0.7,1.6-0.7
			c0.6,0,1.2,0.2,1.6,0.7c0.5,0.5,0.7,1,0.7,1.6c0,0.6-0.2,1.2-0.7,1.6C356.6-71.5,356-71.2,355.4-71.2z"/>
		<path fill="#00457C" d="M370-71.6l-6.4-17.8c-0.5-1.4-0.9-2.2-1.4-2.6c-0.4-0.4-1.2-0.6-2.4-0.6v-0.8h9.3v0.8
			c-1.5,0-2.3,0.4-2.3,1.2c0,0.3,0.1,0.9,0.4,1.6l4.9,14.1h0.1l5.2-14.1c0.3-0.8,0.4-1.3,0.4-1.6c0-0.8-0.9-1.2-2.7-1.2v-0.8h8.1
			v0.8c-1.1,0-1.9,0.2-2.3,0.5c-0.4,0.3-0.9,1.1-1.3,2.2l-6.8,18.3L370-71.6L370-71.6z"/>
		<path fill="#00457C" d="M381.5-71.2c-0.6,0-1.2-0.2-1.6-0.7c-0.5-0.5-0.7-1-0.7-1.6c0-0.6,0.2-1.2,0.7-1.6c0.5-0.5,1-0.7,1.6-0.7
			c0.6,0,1.2,0.2,1.6,0.7c0.5,0.5,0.7,1,0.7,1.6c0,0.6-0.2,1.2-0.7,1.6C382.7-71.5,382.1-71.2,381.5-71.2z"/>
	</g>
	<g>
		<g>
			<path fill="#00457C" d="M135.9-102.6c-0.2,0.1,0.2,1.6,0.5,2.1c0.2,0.5,0.8,1.5,0.8,1.5s0.8,1.6,2,1.9c0.8,0.2,0.8-0.1,1.1-0.5
				c0.3-0.5,0.5-1.7,0.3-1.8c-0.2-0.1-1,0.5-1.5,0.5c-0.6,0-1.5-1.2-1.7-1.5C137.1-100.8,136.1-102.7,135.9-102.6z"/>
			<path fill="#00457C" d="M135.2-110.1c-0.3,0.2-0.5,0.9-0.3,1.4c0.2,0.5,0.4,0.9,0.4,0.9s0-0.7,0.3-1c0.3-0.3,0.6-0.3,0.4-0.7
				C135.9-109.9,135.5-110.3,135.2-110.1z"/>
		</g>
		<path fill="#00457C" d="M154.6-116c-0.8-0.1-3.6,0.7-4.5,1.1c-1.4,0.6-2.3,1.6-3.2,2.7c-0.6,0.6-1.2,1.4-1.2,1.4
			c0.4,0.2,0.2,0.3,0.7,0.1c0.4-0.2,1.7-0.9,2-1.1c0.7-0.5,1.3-1,1.9-1.1c0,0-0.2,0.8-0.2,0.9c0,0.9,0.8,1.2,1.5,1.2
			c0.6,0,1.3-0.3,1.5-0.9c0.1-0.3,0.1-0.5,0.1-0.9c0.5,0.3,0.9,0.6,1.2,1.1c0,0,0,0.8-0.5,1.1c-0.6,0.4-1.1,0.4-1.6,0.6
			c-0.4,0.2-0.4,0.5-0.3,0.5c1.6-0.2,2.8-0.7,3.4-1.3c0.6-0.7,1-1.3,1.4-2.4c0.2-0.8,0.8-1.7,0.9-2.2
			C156.4-115.7,156-115.8,154.6-116z M148.7-112.8l-0.2,0.1c0,0,0.9-1.5,2.5-1.6l0.6,0.4C150.1-114,148.7-112.8,148.7-112.8z"/>
		<path fill="#00457C" d="M161.3-96.3C161.3-96.3,161.2-96.3,161.3-96.3C161.2-96.3,161.2-96.3,161.3-96.3
			C161.3-96.3,161.3-96.3,161.3-96.3z"/>
		<path fill="#00457C" d="M152.7-87.2C152.7-87.2,152.7-87.2,152.7-87.2C152.7-87.2,152.7-87.2,152.7-87.2z"/>
		<path fill="#00457C" d="M166.7-56.6c0,0,11.7-11.4,24.4-12.8c0,0-6.4-5.2-12.1-9.7c-5.7-4.5-7.3-6.2-12.7-8.7l2.8-4.3
			c0,0,0.7-1.4,1-2.7c0.3-1.3,0.8-5.7,1-7c0.2-1.3,1-3.7,1.2-5l0.3-2.7c0.2-0.3,0.7-0.7,1.2-1.1c0.6-0.5,0.6-0.5,0.7-1
			c0.2-0.6,0.6-2.5,0.7-3.6c0.1-0.8,0.1-3.6-0.1-5c-0.1-0.8-0.3-1.1-0.5-2.1c-0.3-1.3-0.1-1-0.3-2.5c-0.2-2.1-2.1-4.1-3.1-6.1
			c-1.1-2-1.3-1.7-2.2-2.8c-0.9-1.1-1.1-1.1-1.1-1.1s-0.6-0.4-1.4-0.6c-0.8-0.2-1.6-0.1-1.8-0.2c-0.4-0.1-0.6-0.4-0.8-0.7
			c-0.2-0.2,0.1-0.9-0.5-1.3c-0.6-0.4-3.4-1.7-4.3-2.2c-0.9-0.5-1.3-0.6-2.5-0.8c-1.1-0.2-4.2-0.3-5-0.3c-0.8,0-1.9,0.2-3,0.3
			c-0.2,0-1.8,0.4-2.6,0.6c-0.8,0.2-2.9,1.7-4.3,2.6c-0.4,0.2-1.1,1.5-1.8,2.2c-0.7,0.7-2.3,2.3-2.8,3c-0.5,0.7-1.4,3-1.6,4.3
			c-0.2,1.3-0.5,2.6-1.3,3.9c-0.7,1.3-0.7,1.5-1.4,2.8c-0.7,1.3-0.4,4-0.5,5c-0.1,1.1,0,1.2-0.1,2.1c-0.1,0.9,0.6,3.8,0.6,3.8l1,1.9
			c0,0,0.4-1.8,0.4-2.2c0-0.4,1-2.1,2.4-1.5c1.1,0.7,1.1,1.8,1.1,2.5c-0.1,0.5,0.4,0.8,0.7,1.1c0.2,0.2,0.3,0.9,0.3,1.3
			c-0.2-0.1-0.4-0.1-0.6-0.1c-1-0.1-1.4,0-1.4,0.6c0,0.6,0.5,1.2,0.4,1.5c-0.1,0.2-0.5,0.3-0.5,0.8c0,0.5-0.2,0.5,0.6,1.3
			c0.7,0.8,0.7,0.8,0.7,0.8v-0.9c0,0-0.2-1.5,0.2-2c0.4-0.6,1.5-1.3,1.5-1.3s-0.2-0.2-0.2-0.2c0-0.1-0.1-1.2-0.1-1.5
			c0.1-0.9-0.1-1.3,0.3-2.4c0.4-1.2,0.2-1.1,0.8-2.5c0.4-1.1,0.6-1.7,0.4-2.9c-0.3-1.9-3.5-0.7-2.9-3.3c0.4-1.7,3.2-8.9,3.9-9.8
			c0.7-1,2.3-2.8,3.2-3.2c0.9-0.4,1.2,0,2.7,0.1c1.5,0.1,3.6,0.4,4.5,0.4c0.9,0,1.7,0.2,2.5,0.2c0.8,0.1,2.6,0,3.8-0.1
			c1.2-0.1,3.1-0.2,3.3-0.3c0.2-0.1,1.4-0.9,1.8-1c1.6-0.1,4.5,3.2,5,3.8c0.4,0.6,2.1,2.9,2.5,4.1c0.1,0.4,0.2,0.6,0,1.4
			c-0.1,0.3-0.3,0.4-0.5,1.1l-0.1,0.6c0,0,0.1,5.1-0.2,6.2c-0.2,0.6-2.2,0-3.2-0.1c-0.8,0-3,0.1-3.9,0.5c-0.7,0.3-1,0.7-1.4,1.4
			c-0.4,0.6-0.5,1.2-0.4,1.9l0.1,0.4c0.1,0.6,1.2,7.8,1.6,9.6c-0.4,0.2-0.8,0.5-1.3,0.7c-1.1,0.5-1.3-0.3-2.1-0.5
			c-0.4-0.1-0.9-0.4-1.3-0.5c-0.2-0.1-0.4-0.2-0.5-0.2c-0.6,0-0.8,0.3-0.9,0.5c-0.1,0.1,0,0.4-0.2,0.4c-0.1,0-0.5-0.2-0.6-0.3
			c-0.1-0.1-0.2,0.1-0.3,0.3c0,0.1-0.1,0.4,0.1,0.5c0.2,0.1,1,0.5,1.3,0.5c0.2,0,0.5-0.1,0.7-0.2c0.2-0.1,0.4-0.2,0.7-0.3
			c0.2,0,0.2,0,0.3,0c0,0,0.1,0,0.1,0l0.5,0.6c0.3,0.8,0.6,2,0.6,2s-0.2,0.4-0.4,1.1c-0.9-0.4-0.9,0-1.6,0c-1.2,0.1-1.4,0.7-2.6,1.5
			c-1.2,0.8-1.8,1.2-2.4,1.8c-0.8,0.8-2.3,1.2-2.3,1.2s0.7,1.1,1.7,1.1s4.3-2.3,5.2-2.5c0.3-0.1,0.8-0.4,1.3-0.5
			c0.8-0.1,2.4-0.3,3.8,0c0.3,0.1,0.2,0.9-1.2,0.8c-1.2,0-1.5-0.3-2.4-0.2c-0.6,0-0.7,0.4-0.7,0.4s-0.6,1.1-0.2,1.5
			c0.7,0.7,1,0.2,2.6,0.5c0.9,0.2,1.8,0.7,2.5,0.9c-0.3,0.6-3.5,1.8-3.5,1.8s-0.2,2.1-2,2c-2.4-0.1-4.9,0-4.9,0
			c-3.2-0.5-3.7-1.6-4.6-2.1c-0.7-0.4-2.5-1.5-1.8-0.7c1.2,1.3,1.1,1.2,2.4,2.3c1,0.8,2.9,0.7,3.6,0.6c0,0,0,0,0,0
			c2.4,0.6,2.7,2.3,4.6,2.7c0.2,0,0.4,0.1,0.5,0.2l-2.4,6.3c-0.2,0.6-0.4,1-0.2,1.6c0.4,1.3,1.6,0.7,2.8,1l-5.3,2.6
			c-0.5-0.8-1-1.4-1.3-1.7c-1.9-2.4-4-4.4-7.9-8.2c-1.3-1.3-3.2-4.4-3.4-6.6c-0.1-1-0.5-3.2-1.1-2.2c0,0,0,4.5-10.7,11
			c-7.1,4.3-10,6.6-11.4,8.7c-1.7,2.4-3.2,4.9-0.4,5.1c1.6,0.1,5.5-0.2,16.7,0.9l0-9.5l0.3,0l1.9,9.8c16.5,2,28.5,9.7,28.5,9.7
			s-4.3-7-7.8-11.9l0.3-0.2L166.7-56.6z M162.5-98.7c0.2-0.2,1.7-1.5,2.1-2c0.2-0.3,0.1-1-0.3-1.4c-0.2-0.2-0.6-0.1-0.6-0.4
			c0,0,0.6-0.2,0.4-1c-0.4-1.6-1.5-7.3-1.5-7.3l-0.5-0.8c0.8-0.6,1.7-1.1,2.6-1.5c-0.9,0.6-1.2,1.3-1.2,1.3l0.8,0.6l0.4,0l-0.8-0.7
			l1.5-0.9c0,0,0,0,0,0c0,0.9,0.7,1.4,1.5,1.4c0.6,0,1.2-0.5,1.4-1.1c0.1-0.4,0.1-0.8,0.1-1c0.2,0,0.4,0,0.7,0.4
			c0.1,0.1,0,0.8-0.4,1.5c-0.2,0.5-0.6,0.5-0.6,0.7c0,0.2,0.1,0.6,0.2,0.7c0.4,0.2,1,1,1.4,1.8c0.5,0.9,0.4,2.5,0.4,2.5
			c-0.2,0.4-3.1,4.4-3.1,4.4s0.3,2,0.7,3.5c0.4,1.6,0.3,2.9,0.1,3.7c-0.2-0.3-0.5-0.5-0.7-0.8c-0.2-0.5-0.6-1-1.1-1.4
			c-1.8-1.4-2-1.7-2.6-1.9C163.3-98.4,162.8-98.7,162.5-98.7z M163.6-82.4c0.8-0.7,1.2-0.9,1.9-2.1c0.6-1.1,0.7-2.1,0.8-2.3
			c0.2,0.7,0.9,2.8,0.2,4.9c-1,2.9-3.1,4.1-3.1,4.1l-1.7-3.5C161.6-81.2,162.4-81.4,163.6-82.4z"/>
	</g>
	<g>
		<rect x="202" y="-137.9" fill="#00457C" width="1.9" height="77.4"/>
	</g>
</g>
</svg>
