<?xml version="1.0" encoding="UTF-8"?>
<svg xmlns="http://www.w3.org/2000/svg" xmlns:xlink="http://www.w3.org/1999/xlink" width="16px" height="16px" viewBox="0 0 16 16" version="1.1">
<g id="surface1">
<path style=" stroke:none;fill-rule:nonzero;fill:rgb(97.254902%,83.529412%,40.784314%);fill-opacity:1;" d="M 2.398438 0 L 13.601562 0 C 14.925781 0 16 1.074219 16 2.398438 L 16 13.601562 C 16 14.925781 14.925781 16 13.601562 16 L 2.398438 16 C 1.074219 16 0 14.925781 0 13.601562 L 0 2.398438 C 0 1.074219 1.074219 0 2.398438 0 Z M 2.398438 0 "/>
<path style=" stroke:none;fill-rule:nonzero;fill:rgb(97.254902%,83.529412%,40.784314%);fill-opacity:1;" d="M 6.21875 12.625 C 5.875 12.625 5.90625 12.5 5.8125 12.1875 L 4.8125 8.90625 L 12.46875 4.40625 "/>
<path style=" stroke:none;fill-rule:nonzero;fill:rgb(97.254902%,83.529412%,40.784314%);fill-opacity:1;" d="M 6.21875 12.625 C 6.4375 12.625 6.5625 12.5 6.71875 12.375 L 8.125 11.03125 L 6.375 9.96875 "/>
<path style=" stroke:none;fill-rule:nonzero;fill:rgb(0%,0%,0%);fill-opacity:1;" d="M 6.375 9.96875 L 10.59375 13.0625 C 11.03125 13.34375 11.40625 13.1875 11.53125 12.625 L 13.25 4.5625 C 13.40625 3.875 12.96875 3.5625 12.5 3.78125 L 2.46875 7.65625 C 1.8125 7.90625 1.8125 8.3125 2.34375 8.46875 L 4.9375 9.28125 L 10.875 5.5 C 11.15625 5.34375 11.40625 5.40625 11.21875 5.625 "/>
</g>
</svg>
