<!DOCTYPE svg PUBLIC "-//W3C//DTD SVG 1.1//EN" "http://www.w3.org/Graphics/SVG/1.1/DTD/svg11.dtd">
<!-- Uploaded to: SVG Repo, www.svgrepo.com, Transformed by: SVG Repo Mixer Tools -->
<svg fill="#00c7b7" version="1.1" id="_x31_" xmlns="http://www.w3.org/2000/svg" xmlns:xlink="http://www.w3.org/1999/xlink" viewBox="0 0 128 128" xml:space="preserve" width="800px" height="800px">
<g id="SVGRepo_bgCarrier" stroke-width="0"/>
<g id="SVGRepo_tracerCarrier" stroke-linecap="round" stroke-linejoin="round"/>
<g id="SVGRepo_iconCarrier"> <g> <ellipse transform="matrix(0.9659 -0.2588 0.2588 0.9659 -11.4851 7.6134)" cx="23.2" cy="47.4" rx="7.8" ry="7.8"/> <path d="M37.4,97.5h-9.5c0,0-0.5,0-0.9,0c-4.3-0.4-8-3.5-9.1-7.8l-6.5-24.2c-0.4-1.4-1.8-2.1-3-1.8c-1.4,0.4-2.1,1.8-1.8,3 l6.4,24.2c1.7,6.3,7,10.9,13.5,11.4c0.6,0.1,1.3,0.1,1.3,0.1h9.5c1.4,0,2.4-1.1,2.5-2.5C39.8,98.5,38.8,97.5,37.4,97.5z"/> <path d="M48.6,83.9h-13c-0.3-4.9-1.1-9.8-2.3-14.7c-0.1-0.4-0.4-1.4-0.4-1.5c-1.7-6.3-7.7-10.3-14-9.7c0,0-0.8,0.1-1,0.1 c-2.3,0.6-3.7,3-3.1,5.4l6.7,24.9c0.7,2.8,3.1,4.9,6.1,5.1h0.6h15.5v17.8c0,2.7,2.1,4.9,4.9,4.9c2.7,0,4.9-2.1,4.9-4.9V88.8 c0-1.3-0.5-2.5-1.5-3.4C51.1,84.4,49.8,83.9,48.6,83.9z"/> </g> <g> <ellipse transform="matrix(0.2588 -0.9659 0.9659 0.2588 31.5932 136.028)" cx="104.4" cy="47.4" rx="7.8" ry="7.8"/> <path d="M90.2,97.5h9.5c0,0,0.5,0,0.9,0c4.3-0.4,8-3.5,9.1-7.8l6.5-24.2c0.4-1.4,1.8-2.1,3-1.8c1.4,0.4,2.1,1.8,1.8,3l-6.4,24.2 c-1.7,6.3-7,10.9-13.5,11.4c-0.6,0.1-1.3,0.1-1.3,0.1h-9.5c-1.4,0-2.4-1.1-2.5-2.5C87.8,98.5,88.9,97.5,90.2,97.5z"/> <path d="M79,83.9h13c0.3-4.9,1.1-9.8,2.3-14.7c0.1-0.4,0.4-1.4,0.4-1.5c1.7-6.3,7.7-10.3,14-9.7c0,0,0.8,0.1,1,0.1 c2.3,0.6,3.7,3,3.1,5.4L106,88.4c-0.7,2.8-3.1,4.9-6.1,5.1h-0.6H83.9v17.8c0,2.7-2.1,4.9-4.9,4.9s-4.9-2.1-4.9-4.9V88.8 c0-1.3,0.5-2.5,1.5-3.4C76.5,84.4,77.8,83.9,79,83.9z"/> </g> <rect x="38.8" y="70.8" width="50.6" height="6"/> <circle cx="64.1" cy="43.2" r="7.2"/> <path d="M52.5,67.9v-4.3h-0.1c0-0.5,0.4-0.9,0.9-0.9c0.5,0,0.9,0.4,0.9,0.9v4.3h19.9v-4.3h-0.1c0-0.5,0.4-0.9,0.9-0.9 s0.9,0.4,0.9,0.9v4.3h6.2v-6.1c0-5-4-9-9-9h-18c-5,0-9,4-9,9v6.1H52.5z"/> </g>
</svg>